<?xml version="1.0" standalone="no"?>
<!DOCTYPE svg PUBLIC "-//W3C//DTD SVG 20010904//EN"
 "http://www.w3.org/TR/2001/REC-SVG-20010904/DTD/svg10.dtd">
<svg version="1.0" xmlns="http://www.w3.org/2000/svg"
 width="512.000000pt" height="513.000000pt" viewBox="0 0 512.000000 513.000000"
 preserveAspectRatio="xMidYMid meet">

<g transform="translate(0.000000,513.000000) scale(0.100000,-0.100000)"
fill="#000000" stroke="none">
<path d="M1048 3639 c-239 -25 -481 -140 -633 -299 l-40 -42 150 5 c131 5 169
10 300 43 149 38 151 39 350 39 180 0 208 -3 282 -24 116 -33 283 -138 283
-178 0 -23 -53 -163 -61 -163 -4 0 -43 24 -86 54 -148 102 -326 179 -488 210
-164 33 -295 25 -490 -28 -64 -18 -138 -29 -207 -33 l-107 -6 -26 -38 c-14
-21 -25 -41 -25 -44 0 -19 193 8 362 51 266 67 546 51 729 -41 55 -29 159
-112 159 -128 0 -21 -58 -162 -67 -162 -4 0 -51 29 -103 64 -171 113 -336 179
-525 208 -126 19 -233 12 -385 -26 -63 -16 -138 -32 -167 -36 l-52 -7 -31 -74
c-50 -121 -71 -216 -77 -361 l-6 -133 107 45 c264 110 551 175 776 175 135 0
221 -19 316 -69 125 -66 180 -57 387 62 71 41 136 71 179 81 112 28 261 20
351 -19 11 -5 17 -3 17 7 0 38 -46 174 -90 264 -166 341 -485 565 -861 604
-111 11 -110 11 -221 -1z"/>
<path d="M2570 2550 l0 -1100 193 0 c223 0 298 10 385 50 160 75 243 234 289
560 25 179 26 829 1 1005 -44 307 -113 447 -258 524 -92 49 -166 61 -402 61
l-208 0 0 -1100z m430 847 c34 -17 78 -102 95 -184 28 -134 37 -369 32 -809
-3 -240 -10 -460 -16 -499 -21 -134 -70 -191 -171 -202 l-50 -5 0 856 0 856
43 0 c23 0 53 -6 67 -13z"/>
<path d="M3630 2550 l0 -1100 160 0 160 0 2 513 3 512 77 3 c93 3 127 -11 154
-65 17 -34 20 -72 25 -353 7 -332 12 -370 57 -453 54 -100 135 -144 285 -154
l87 -6 0 125 0 125 -41 6 c-23 3 -48 12 -55 19 -26 25 -34 122 -34 393 0 244
-2 280 -20 337 -25 80 -84 152 -153 184 l-49 22 39 25 c116 73 172 222 173
457 0 288 -78 443 -250 494 -44 13 -106 16 -337 16 l-283 0 0 -1100z m465 848
c66 -30 90 -136 82 -366 -5 -170 -16 -218 -58 -263 -25 -27 -33 -29 -98 -29
l-71 0 0 335 0 335 60 0 c32 0 71 -5 85 -12z"/>
<path d="M4722 2553 l3 -1098 158 -3 157 -3 0 1101 0 1100 -160 0 -160 0 2
-1097z"/>
<path d="M150 2361 c0 -21 144 -140 221 -184 213 -121 463 -156 719 -103 63
14 158 34 210 46 84 19 116 21 280 17 156 -4 196 -8 255 -27 89 -28 139 -54
192 -96 l42 -34 25 42 c38 65 82 166 101 232 14 49 15 60 4 67 -8 5 -133 9
-279 10 -146 0 -303 2 -350 4 -47 1 -247 5 -445 9 -742 13 -950 17 -962 21 -7
3 -13 0 -13 -4z"/>
<path d="M160 2176 c0 -16 53 -120 89 -179 38 -60 47 -68 92 -81 170 -51 353
-47 613 14 250 57 424 61 611 14 82 -21 215 -87 269 -135 24 -21 47 -39 51
-39 3 0 20 14 38 30 l32 31 -25 19 c-86 66 -346 170 -475 190 -173 26 -272 19
-469 -37 -121 -35 -140 -37 -261 -37 -122 0 -136 2 -220 33 -105 39 -188 80
-265 130 -80 53 -80 52 -80 47z"/>
<path d="M925 1883 c-11 -2 -85 -20 -165 -40 -118 -29 -165 -36 -253 -37
l-109 -1 49 -44 c115 -105 289 -198 453 -243 73 -20 109 -23 260 -23 224 0
313 20 508 118 34 17 62 34 62 37 0 11 -165 104 -250 141 -137 59 -275 90
-415 94 -66 1 -129 1 -140 -2z"/>
</g>
</svg>
