<?xml version="1.0" standalone="no"?>
<!DOCTYPE svg PUBLIC "-//W3C//DTD SVG 20010904//EN"
 "http://www.w3.org/TR/2001/REC-SVG-20010904/DTD/svg10.dtd">
<svg version="1.0" xmlns="http://www.w3.org/2000/svg"
 width="590.000000pt" height="443.000000pt" viewBox="0 0 590.000000 443.000000"
 preserveAspectRatio="xMidYMid meet">

<g transform="translate(0.000000,443.000000) scale(0.100000,-0.100000)"
fill="#000000" stroke="none">
<path d="M610 2210 l0 -750 750 0 750 0 0 750 0 750 -750 0 -750 0 0 -750z
m739 199 l131 -161 0 76 c0 74 -1 76 -25 76 -25 0 -25 1 -25 85 l0 85 188 -2
187 -3 0 -80 c0 -80 0 -80 -27 -83 l-28 -3 0 -190 0 -189 30 0 31 0 -3 -82 -3
-83 -157 -3 -156 -2 -127 155 c-70 85 -129 155 -131 155 -2 0 -4 -31 -4 -70
l0 -70 30 0 31 0 -3 -82 -3 -83 -187 -3 -188 -2 0 85 c0 84 0 85 25 85 l25 0
0 190 0 190 -25 0 c-25 0 -25 1 -25 85 l0 85 154 0 154 0 131 -161z"/>
<path d="M960 2486 c0 -30 3 -35 28 -38 l27 -3 3 -232 2 -232 -27 -3 c-24 -3
-28 -8 -31 -40 l-3 -38 135 0 136 0 0 40 c0 38 -2 40 -30 40 l-30 0 0 165 c0
91 4 165 9 165 5 0 84 -92 176 -205 l168 -205 113 0 114 0 0 40 c0 38 -2 40
-30 40 l-30 0 2 233 3 232 28 3 c24 3 27 8 27 38 l0 34 -135 0 -135 0 0 -35
c0 -31 3 -35 25 -35 14 0 28 -6 31 -13 2 -7 3 -88 2 -179 l-3 -167 -175 215
-174 214 -113 0 -113 0 0 -34z"/>
<path d="M3682 2332 c-17 -11 -52 -82 -41 -82 5 0 9 -27 9 -60 0 -47 3 -60 15
-60 12 0 15 13 15 60 0 47 3 60 15 60 8 0 15 5 15 10 0 6 -7 10 -15 10 -20 0
-19 24 2 41 9 8 18 13 20 12 1 -2 3 0 4 5 0 11 -24 13 -39 4z"/>
<path d="M4460 2295 c0 -33 -1 -34 -29 -29 -39 8 -71 -24 -71 -71 0 -45 32
-80 63 -70 12 4 32 7 45 7 21 0 22 3 22 99 0 81 -3 99 -15 99 -10 0 -15 -11
-15 -35z m-12 -57 c20 -20 15 -76 -9 -88 -43 -24 -80 48 -43 84 19 19 36 20
52 4z"/>
<path d="M2310 2242 c0 -88 10 -109 57 -118 26 -5 37 -1 57 19 23 23 26 34 26
102 0 98 -17 97 -22 -1 -3 -60 -7 -79 -23 -90 -25 -18 -31 -18 -55 6 -16 16
-20 33 -20 90 0 40 -4 70 -10 70 -6 0 -10 -33 -10 -78z"/>
<path d="M2642 2309 c2 -6 8 -10 13 -10 5 0 11 4 13 10 2 6 -4 11 -13 11 -9 0
-15 -5 -13 -11z"/>
<path d="M3162 2309 c2 -6 8 -10 13 -10 5 0 11 4 13 10 2 6 -4 11 -13 11 -9 0
-15 -5 -13 -11z"/>
<path d="M3780 2226 c0 -82 2 -96 16 -96 14 0 16 11 12 75 -2 41 -3 75 -2 75
1 0 23 -34 49 -75 64 -103 75 -100 75 20 0 114 -18 129 -22 18 l-3 -77 -45 75
c-25 40 -53 75 -63 77 -15 3 -17 -7 -17 -92z"/>
<path d="M4740 2225 c0 -78 3 -95 15 -95 11 0 15 11 15 40 0 32 4 40 19 40 23
0 37 -16 46 -53 4 -15 13 -27 20 -27 16 0 4 52 -17 77 -10 12 -9 17 5 24 20
11 23 59 5 77 -7 7 -34 12 -60 12 l-48 0 0 -95z m95 55 c9 -27 -11 -50 -41
-50 -21 0 -24 5 -24 35 0 32 2 35 29 35 21 0 32 -6 36 -20z"/>
<path d="M3226 2278 c-13 -14 -15 -23 -8 -26 7 -2 12 -25 12 -56 0 -54 12 -76
42 -76 24 0 23 12 -2 28 -15 9 -20 23 -20 53 0 32 4 42 20 46 26 7 26 23 1 23
-11 0 -21 7 -23 15 -2 13 -7 11 -22 -7z"/>
<path d="M2490 2202 c0 -82 17 -98 22 -21 6 95 68 93 68 -2 0 -37 4 -49 15
-49 19 0 20 74 2 110 -14 27 -50 38 -71 21 -9 -7 -16 -7 -24 1 -9 9 -12 -5
-12 -60z"/>
<path d="M2646 2263 c-3 -3 -6 -35 -6 -70 0 -49 3 -63 15 -63 12 0 15 14 15
64 0 60 -8 84 -24 69z"/>
<path d="M2690 2256 c0 -33 44 -127 58 -124 15 3 69 125 59 134 -11 12 -25 -7
-37 -51 -7 -25 -16 -47 -20 -50 -4 -2 -14 20 -24 50 -16 51 -36 74 -36 41z"/>
<path d="M2841 2244 c-29 -38 -27 -78 6 -104 28 -22 74 -24 80 -3 3 7 -3 9
-15 6 -25 -6 -62 13 -62 32 0 11 12 15 45 15 41 0 45 2 45 24 0 56 -64 75 -99
30z m69 2 c0 -2 3 -11 6 -20 5 -13 -1 -16 -30 -16 -34 0 -47 15 -29 33 7 8 53
10 53 3z"/>
<path d="M2970 2202 c0 -41 4 -72 10 -72 6 0 10 20 10 44 0 43 14 69 42 79 7
2 9 8 5 13 -4 4 -16 3 -26 -3 -14 -9 -21 -9 -30 0 -8 8 -11 -8 -11 -61z"/>
<path d="M3066 2257 c-25 -18 -17 -49 17 -65 37 -18 32 -48 -6 -45 -31 2 -36
-13 -7 -22 29 -9 58 3 66 28 5 16 -1 27 -25 47 -37 32 -40 50 -6 50 14 0 25 5
25 10 0 14 -43 12 -64 -3z"/>
<path d="M3166 2263 c-3 -3 -6 -35 -6 -70 0 -49 3 -63 15 -63 12 0 15 14 15
64 0 60 -8 84 -24 69z"/>
<path d="M3300 2266 c0 -3 12 -35 26 -70 20 -52 23 -69 14 -85 -6 -12 -15 -21
-20 -21 -6 0 -10 -7 -10 -15 0 -25 37 0 56 37 35 68 64 158 51 158 -7 0 -22
-25 -33 -56 l-20 -57 -20 53 c-10 30 -25 55 -31 58 -7 2 -13 1 -13 -2z"/>
<path d="M3510 2250 c-20 -20 -27 -74 -12 -96 13 -21 52 -34 77 -28 31 8 45
32 45 78 0 59 -68 88 -110 46z m80 -19 c15 -30 12 -56 -10 -76 -23 -21 -46
-14 -62 19 -22 50 46 105 72 57z"/>
<path d="M3980 2250 c-21 -21 -26 -69 -10 -100 11 -21 53 -34 81 -25 29 9 23
26 -6 19 -18 -4 -32 -1 -45 11 -31 28 -24 35 30 35 46 0 50 2 50 23 0 51 -63
74 -100 37z m68 -12 c21 -21 13 -28 -28 -28 -38 0 -40 2 -30 20 12 22 40 26
58 8z"/>
<path d="M4090 2263 c0 -4 10 -36 22 -70 29 -80 46 -81 76 -5 24 63 27 82 13
82 -6 0 -18 -25 -27 -55 -10 -30 -20 -52 -23 -49 -3 3 -13 26 -22 52 -13 40
-39 70 -39 45z"/>
<path d="M4240 2260 c-15 -10 -13 -11 30 -13 36 -3 31 -29 -7 -39 -24 -6 -35
-16 -39 -35 -8 -31 20 -58 51 -48 11 4 28 7 38 6 14 0 17 9 17 54 0 35 -5 59
-16 69 -17 18 -51 21 -74 6z m65 -70 c10 -16 -15 -51 -33 -48 -21 4 -28 38
-10 49 18 12 35 11 43 -1z"/>
<path d="M4527 2263 c-14 -13 -6 -18 26 -18 44 0 42 -24 -3 -39 -27 -8 -36
-17 -38 -38 -4 -32 27 -53 61 -42 12 5 28 7 35 6 18 -4 16 88 -4 116 -15 21
-62 31 -77 15z m63 -87 c0 -29 -37 -47 -51 -25 -13 20 -11 27 9 38 28 17 42
12 42 -13z"/>
<path d="M4901 2244 c-28 -35 -26 -69 4 -99 24 -25 49 -31 79 -19 22 8 10 23
-13 17 -24 -6 -61 13 -61 32 0 11 12 15 43 15 53 0 59 5 46 38 -19 50 -66 57
-98 16z m69 2 c0 -2 3 -11 6 -20 5 -13 -1 -16 -30 -16 -34 0 -47 15 -29 33 7
8 53 10 53 3z"/>
<path d="M5030 2200 c0 -40 4 -70 10 -70 6 0 10 22 10 49 0 54 17 77 50 66 17
-5 20 -15 20 -61 0 -41 4 -54 15 -54 21 0 20 88 -1 118 -17 24 -53 29 -72 10
-9 -9 -12 -9 -12 0 0 7 -4 12 -10 12 -6 0 -10 -30 -10 -70z"/>
<path d="M5195 2245 c-14 -13 -25 -36 -25 -50 0 -31 41 -75 70 -75 27 0 70 43
70 70 0 72 -67 104 -115 55z m73 -7 c7 -7 12 -26 12 -43 0 -50 -33 -71 -64
-39 -31 30 -15 94 24 94 9 0 21 -5 28 -12z"/>
<path d="M4650 2141 c0 -11 -3 -26 -6 -35 -3 -9 -2 -16 4 -16 6 0 15 14 21 31
14 40 14 39 -4 39 -8 0 -15 -9 -15 -19z"/>
</g>
</svg>
